<svg version="1.1" id="Layer_1" xmlns="http://www.w3.org/2000/svg" xmlns:xlink="http://www.w3.org/1999/xlink" x="0px" y="0px"
	 width="100%" viewBox="0 0 640 640" enable-background="new 0 0 640 640" xml:space="preserve">
<path fill="#000000" opacity="1.000000" stroke="none" 
	d="
M340.000000,641.000000 
	C226.666687,641.000000 113.833374,641.000000 1.000045,641.000000 
	C1.000030,427.666718 1.000030,214.333450 1.000015,1.000131 
	C214.333237,1.000087 427.666473,1.000087 640.999756,1.000044 
	C640.999878,214.333191 640.999878,427.666382 640.999939,640.999756 
	C540.833313,641.000000 440.666656,641.000000 340.000000,641.000000 
M252.063156,28.415936 
	C245.909088,30.205492 239.745316,31.962494 233.602631,33.790295 
	C208.073639,41.386631 183.903427,52.100986 161.221802,66.031311 
	C144.320953,76.411270 128.209991,87.949455 113.848045,101.706985 
	C98.160255,116.734573 83.398590,132.555267 70.885765,150.459015 
	C57.830166,169.139404 46.697216,188.773132 37.943184,209.816055 
	C30.894226,226.760284 24.899605,244.036163 21.556004,262.083527 
	C18.957628,276.108490 16.504759,290.221527 15.207136,304.407013 
	C14.178572,315.651154 14.610108,327.081665 15.109009,338.397888 
	C15.613242,349.835083 16.209953,361.371918 18.185829,372.615631 
	C20.996056,388.607147 24.480967,404.542847 28.808601,420.189575 
	C34.653122,441.320587 44.257248,460.958740 54.975716,480.059418 
	C68.117035,503.477692 84.508881,524.405701 103.172050,543.605530 
	C107.305641,547.857971 111.755852,551.823242 116.253929,555.695801 
	C122.686790,561.234192 128.967285,567.039612 135.906937,571.879028 
	C147.653046,580.070374 159.868896,587.587585 171.878067,595.402405 
	C186.928772,605.196533 203.343979,612.139893 220.362854,617.465271 
	C225.111008,618.950989 231.131775,618.764038 235.892822,617.237000 
	C242.565063,615.097107 243.982071,608.566895 243.991806,602.058228 
	C244.016510,585.558289 244.005127,569.058411 243.991028,552.558472 
	C243.989792,551.113159 243.862183,549.668030 243.782730,548.001831 
	C241.000748,548.001831 238.516205,547.856079 236.053879,548.028198 
	C227.557480,548.622070 219.054489,549.990479 210.581177,549.807312 
	C201.665283,549.614685 192.551666,548.891235 183.942871,546.731750 
	C174.177673,544.282104 163.847946,541.420837 157.439453,532.739441 
	C150.175339,522.899048 142.890640,512.882080 137.233170,502.093262 
	C129.132599,486.645508 117.323517,474.593140 105.139748,462.681030 
	C102.564232,460.162933 99.626793,458.009033 97.121460,455.429596 
	C96.531311,454.821930 96.509621,452.616791 97.088097,452.086365 
	C101.346817,448.181793 106.614357,446.163269 112.252731,447.111877 
	C122.951439,448.911835 132.789764,453.281128 140.386826,461.079346 
	C152.001892,473.001923 162.866974,485.651367 174.323868,497.732941 
	C183.481857,507.390198 195.269287,512.022278 208.319778,511.778076 
	C217.483765,511.606628 226.579559,509.065552 235.762329,508.148621 
	C241.363342,507.589355 244.868881,504.944031 246.542206,499.912903 
	C250.460129,488.133148 254.989883,476.726410 262.622650,466.708923 
	C264.476196,464.276245 262.207092,462.586609 259.696777,462.026459 
	C247.595062,459.326202 235.378967,457.068481 223.395889,453.921082 
	C196.968094,446.979675 173.564835,434.803955 156.345139,412.799591 
	C145.211365,398.572174 136.595108,382.924347 133.126816,365.072296 
	C130.991135,354.079559 130.569031,342.765625 128.934921,331.661041 
	C126.480080,314.978973 128.164749,298.367554 130.244034,281.920868 
	C132.329056,265.428680 140.307495,251.168381 150.993042,238.473495 
	C154.695023,234.075348 156.932480,229.121414 155.959244,223.208542 
	C155.410492,219.874603 154.469666,216.600357 154.010239,213.257355 
	C151.638107,195.996353 152.359970,178.707672 156.316177,161.876465 
	C158.528168,152.465805 160.379974,148.729645 171.815155,148.910889 
	C185.140152,149.122101 197.072556,154.037277 208.703262,159.486572 
	C219.603394,164.593536 229.829269,171.123917 240.520905,176.704025 
	C242.820969,177.904449 246.062073,178.613846 248.502014,178.025269 
	C266.815613,173.607330 285.414001,171.422668 304.174713,171.114502 
	C318.751068,170.875061 333.344818,171.947586 347.930023,171.924210 
	C363.872192,171.898651 379.375519,174.150803 394.627716,178.728348 
	C396.470703,179.281479 399.099030,178.415955 400.978973,177.455566 
	C414.124756,170.739990 427.009064,163.494354 440.296661,157.080429 
	C451.080139,151.875229 462.557343,148.439545 474.671387,148.046692 
	C481.595551,147.822144 483.138214,148.782120 484.906158,155.766937 
	C487.036255,164.182556 489.323944,172.734375 489.863770,181.332687 
	C490.568726,192.561630 490.674072,204.047424 489.049652,215.131378 
	C487.834625,223.422058 486.791077,230.714569 492.282532,237.785767 
	C509.558258,260.031189 515.734985,286.009918 516.935120,313.465607 
	C517.724731,331.529114 514.952576,349.263916 509.937408,366.581757 
	C504.125092,386.652527 495.335297,405.231476 480.262177,420.165131 
	C468.889587,431.432465 455.692230,440.030426 441.019135,446.584778 
	C425.897461,453.339508 410.162201,457.532776 393.871704,460.050323 
	C389.180908,460.775238 384.580139,462.083038 379.323944,463.261292 
	C382.599030,468.905579 385.422943,473.938202 388.405029,478.875336 
	C393.812958,487.828735 398.673279,496.702484 397.178986,507.973480 
	C396.223541,515.180054 396.928833,522.617126 397.012817,529.949524 
	C397.313477,556.202332 397.649384,582.454773 398.049591,608.706238 
	C398.070282,610.062561 398.378906,611.959717 399.285706,612.669250 
	C405.396362,617.450378 411.294403,621.189209 420.176270,618.225281 
	C441.364044,611.154846 461.085052,601.144348 480.167023,589.872314 
	C499.830627,578.256714 518.152771,564.646484 534.134521,548.230469 
	C543.421082,538.691528 552.302429,528.720886 560.870789,518.528137 
	C576.413574,500.038818 588.622375,479.376587 598.829224,457.547485 
	C611.511780,430.424042 620.183105,402.110718 624.094604,372.328735 
	C626.486206,354.119019 628.832031,335.978607 627.031433,317.555115 
	C625.868530,305.655884 625.684021,293.619781 623.821472,281.841034 
	C621.686462,268.339478 618.819336,254.875595 615.130554,241.714798 
	C608.395447,217.685257 598.441528,194.943420 585.840210,173.338440 
	C574.671997,154.190491 561.568054,136.467911 546.572327,120.252434 
	C532.169495,104.678192 516.259216,90.737061 498.961823,78.274559 
	C473.701965,60.075268 446.498688,45.877563 417.029633,36.030792 
	C402.329315,31.118824 387.369537,27.190226 371.800354,25.960468 
	C357.115631,24.800575 342.477692,22.705763 327.777771,22.180418 
	C313.721863,21.678089 299.608643,22.556429 285.529449,23.070585 
	C281.498627,23.217785 277.496735,24.195730 273.484955,24.814791 
	C266.598572,25.877434 259.714874,26.957417 252.063156,28.415936 
z"/>
<path fill="#FFFFFF" opacity="1.000000" stroke="none" 
	d="
M252.446609,28.223026 
	C259.714874,26.957417 266.598572,25.877434 273.484955,24.814791 
	C277.496735,24.195730 281.498627,23.217785 285.529449,23.070585 
	C299.608643,22.556429 313.721863,21.678089 327.777771,22.180418 
	C342.477692,22.705763 357.115631,24.800575 371.800354,25.960468 
	C387.369537,27.190226 402.329315,31.118824 417.029633,36.030792 
	C446.498688,45.877563 473.701965,60.075268 498.961823,78.274559 
	C516.259216,90.737061 532.169495,104.678192 546.572327,120.252434 
	C561.568054,136.467911 574.671997,154.190491 585.840210,173.338440 
	C598.441528,194.943420 608.395447,217.685257 615.130554,241.714798 
	C618.819336,254.875595 621.686462,268.339478 623.821472,281.841034 
	C625.684021,293.619781 625.868530,305.655884 627.031433,317.555115 
	C628.832031,335.978607 626.486206,354.119019 624.094604,372.328735 
	C620.183105,402.110718 611.511780,430.424042 598.829224,457.547485 
	C588.622375,479.376587 576.413574,500.038818 560.870789,518.528137 
	C552.302429,528.720886 543.421082,538.691528 534.134521,548.230469 
	C518.152771,564.646484 499.830627,578.256714 480.167023,589.872314 
	C461.085052,601.144348 441.364044,611.154846 420.176270,618.225281 
	C411.294403,621.189209 405.396362,617.450378 399.285706,612.669250 
	C398.378906,611.959717 398.070282,610.062561 398.049591,608.706238 
	C397.649384,582.454773 397.313477,556.202332 397.012817,529.949524 
	C396.928833,522.617126 396.223541,515.180054 397.178986,507.973480 
	C398.673279,496.702484 393.812958,487.828735 388.405029,478.875336 
	C385.422943,473.938202 382.599030,468.905579 379.323944,463.261292 
	C384.580139,462.083038 389.180908,460.775238 393.871704,460.050323 
	C410.162201,457.532776 425.897461,453.339508 441.019135,446.584778 
	C455.692230,440.030426 468.889587,431.432465 480.262177,420.165131 
	C495.335297,405.231476 504.125092,386.652527 509.937408,366.581757 
	C514.952576,349.263916 517.724731,331.529114 516.935120,313.465607 
	C515.734985,286.009918 509.558258,260.031189 492.282532,237.785767 
	C486.791077,230.714569 487.834625,223.422058 489.049652,215.131378 
	C490.674072,204.047424 490.568726,192.561630 489.863770,181.332687 
	C489.323944,172.734375 487.036255,164.182556 484.906158,155.766937 
	C483.138214,148.782120 481.595551,147.822144 474.671387,148.046692 
	C462.557343,148.439545 451.080139,151.875229 440.296661,157.080429 
	C427.009064,163.494354 414.124756,170.739990 400.978973,177.455566 
	C399.099030,178.415955 396.470703,179.281479 394.627716,178.728348 
	C379.375519,174.150803 363.872192,171.898651 347.930023,171.924210 
	C333.344818,171.947586 318.751068,170.875061 304.174713,171.114502 
	C285.414001,171.422668 266.815613,173.607330 248.502014,178.025269 
	C246.062073,178.613846 242.820969,177.904449 240.520905,176.704025 
	C229.829269,171.123917 219.603394,164.593536 208.703262,159.486572 
	C197.072556,154.037277 185.140152,149.122101 171.815155,148.910889 
	C160.379974,148.729645 158.528168,152.465805 156.316177,161.876465 
	C152.359970,178.707672 151.638107,195.996353 154.010239,213.257355 
	C154.469666,216.600357 155.410492,219.874603 155.959244,223.208542 
	C156.932480,229.121414 154.695023,234.075348 150.993042,238.473495 
	C140.307495,251.168381 132.329056,265.428680 130.244034,281.920868 
	C128.164749,298.367554 126.480080,314.978973 128.934921,331.661041 
	C130.569031,342.765625 130.991135,354.079559 133.126816,365.072296 
	C136.595108,382.924347 145.211365,398.572174 156.345139,412.799591 
	C173.564835,434.803955 196.968094,446.979675 223.395889,453.921082 
	C235.378967,457.068481 247.595062,459.326202 259.696777,462.026459 
	C262.207092,462.586609 264.476196,464.276245 262.622650,466.708923 
	C254.989883,476.726410 250.460129,488.133148 246.542206,499.912903 
	C244.868881,504.944031 241.363342,507.589355 235.762329,508.148621 
	C226.579559,509.065552 217.483765,511.606628 208.319778,511.778076 
	C195.269287,512.022278 183.481857,507.390198 174.323868,497.732941 
	C162.866974,485.651367 152.001892,473.001923 140.386826,461.079346 
	C132.789764,453.281128 122.951439,448.911835 112.252731,447.111877 
	C106.614357,446.163269 101.346817,448.181793 97.088097,452.086365 
	C96.509621,452.616791 96.531311,454.821930 97.121460,455.429596 
	C99.626793,458.009033 102.564232,460.162933 105.139748,462.681030 
	C117.323517,474.593140 129.132599,486.645508 137.233170,502.093262 
	C142.890640,512.882080 150.175339,522.899048 157.439453,532.739441 
	C163.847946,541.420837 174.177673,544.282104 183.942871,546.731750 
	C192.551666,548.891235 201.665283,549.614685 210.581177,549.807312 
	C219.054489,549.990479 227.557480,548.622070 236.053879,548.028198 
	C238.516205,547.856079 241.000748,548.001831 243.782730,548.001831 
	C243.862183,549.668030 243.989792,551.113159 243.991028,552.558472 
	C244.005127,569.058411 244.016510,585.558289 243.991806,602.058228 
	C243.982071,608.566895 242.565063,615.097107 235.892822,617.237000 
	C231.131775,618.764038 225.111008,618.950989 220.362854,617.465271 
	C203.343979,612.139893 186.928772,605.196533 171.878067,595.402405 
	C159.868896,587.587585 147.653046,580.070374 135.906937,571.879028 
	C128.967285,567.039612 122.686790,561.234192 116.253929,555.695801 
	C111.755852,551.823242 107.305641,547.857971 103.172050,543.605530 
	C84.508881,524.405701 68.117035,503.477692 54.975716,480.059418 
	C44.257248,460.958740 34.653122,441.320587 28.808601,420.189575 
	C24.480967,404.542847 20.996056,388.607147 18.185829,372.615631 
	C16.209953,361.371918 15.613242,349.835083 15.109009,338.397888 
	C14.610108,327.081665 14.178572,315.651154 15.207136,304.407013 
	C16.504759,290.221527 18.957628,276.108490 21.556004,262.083527 
	C24.899605,244.036163 30.894226,226.760284 37.943184,209.816055 
	C46.697216,188.773132 57.830166,169.139404 70.885765,150.459015 
	C83.398590,132.555267 98.160255,116.734573 113.848045,101.706985 
	C128.209991,87.949455 144.320953,76.411270 161.221802,66.031311 
	C183.903427,52.100986 208.073639,41.386631 233.602631,33.790295 
	C239.745316,31.962494 245.909088,30.205492 252.446609,28.223026 
z"/>
</svg>